<svg version="1" xmlns="http://www.w3.org/2000/svg" width="346.667" height="346.667" viewBox="0 0 260.000000 260.000000"><path d="M74 50c-21.7 2.6-39.8 16.6-47.8 37-9.3 23.9-.8 51 20.1 64.4 15.3 9.8 40.2 11.8 56.6 4.5 2.5-1.1 4.8-1.6 5.1-1.2.4.5 5.6 13 11.6 28 6.8 16.9 11.5 27.4 12.4 27.5 1.1.3 4.9-7.6 14.2-29.7 7-16.5 13.6-31.8 14.6-34l1.9-3.9 5 12.9c2.8 7.2 8.5 22.2 12.9 33.5 4.3 11.3 8.3 20.8 8.8 21.2.6.4 1.6.2 2.2-.5.7-.7 5.3-12.2 10.4-25.7 28.5-75.9 28.6-76 33.2-78.1 1.7-.8 3.4-2 3.6-2.7.3-.9-2.9-1.2-13.7-1.2-11.3 0-14.1.3-14.1 1.4 0 .8 1.6 1.6 3.9 2 4.8.7 6.5 2.7 6.4 7.5-.1 3-17.3 51.3-20.3 57-.8 1.5-.8 1.5-11.7-26.9-12.3-31.9-12.5-32.6-10.5-35 1.1-1.3 3.4-2.3 6-2.7 2.6-.3 4.2-1.1 4.2-1.9 0-1.2-4.7-1.4-26-1.4-20.3 0-25.8.3-25.5 1.2.3.7 2.7 2 5.3 2.8 5.4 1.7 7 4 12.8 18.7l3.7 9.2-1.8 4.8c-1 2.6-2.6 6.6-3.6 8.8-1.8 4-8.1 19.3-10 24.3-1 2.5-1.9.7-11-21.8-14.1-34.5-15.4-38.5-14.1-41.5.8-1.6 2.3-2.6 4.7-3.1 2-.3 3.5-1.2 3.5-2 0-1.2-3.7-1.4-22.7-1.2-23 .3-27 1-19.8 3.7 2.8 1 4.1 2.4 6.4 7 3 5.8 14.1 32.9 14.1 34.3 0 2.2-12.4 5.8-20.1 5.8-10.7 0-18.7-3.7-24.7-11.5-9-11.8-12.3-37.6-7.2-56.3 3.5-12.7 8.8-19.9 18.5-25 4.4-2.4 6.1-2.7 14.5-2.7 8.7 0 10 .3 14.8 3 9 4.9 14.6 12.4 18.6 24.7.3 1.1 1.1 1.5 2.1 1.2 2.2-.9 2.3-35.9.1-36.7-1-.4-1.7.2-2.2 1.6-1 3.4-3.5 5.7-6.1 5.7-1.4 0-6.2-1.3-10.7-2.9-4.5-1.6-10.9-3.2-14.2-3.6-3.2-.4-6.6-.8-7.4-.9-.8-.1-4 .1-7 .4z"/></svg>